# xmcd CD database file
#
# Track frame offsets:
#	150
#	12662
#	29167
#	46375
#	61462
#	78975
#	95962
#	113625
#	130450
#	147650
#	164150
#	184337
#
# Disc length: 2650 seconds
#
# Revision: 0
# Processed by: cddbd v1.4b42PL1 Copyright (c) Steve Scherf et al.
# Submitted via: CDex 1.40Beta6
#
DISCID=be0a580c
DTITLE=The Wilsons - The Wilsons
DYEAR=1990
DGENRE=Country
TTITLE0=That's Not The Kind Of Love I Need Tonight
TTITLE1=Playing With A Tender Heart
TTITLE2=Every Road Leads Back To You
TTITLE3=Reason To Live
TTITLE4=A Face In The Crowd
TTITLE5=The Show Must Go On
TTITLE6=Not A Day Goes By
TTITLE7=A Star In Momma's Eyes
TTITLE8=Falling In Love Again
TTITLE9=I'm On My Way
TTITLE10=You Did
TTITLE11=Like Strangers
EXTD=
EXTT0=
EXTT1=
EXTT2=
EXTT3=
EXTT4=
EXTT5=
EXTT6=
EXTT7=
EXTT8=
EXTT9=
EXTT10=
EXTT11=
PLAYORDER=
